<svg width="32" height="32" viewBox="0 0 32 32" fill="none" xmlns="http://www.w3.org/2000/svg">
<path fill-rule="evenodd" clip-rule="evenodd" d="M2.66666 16.0201C2.66666 8.99624 8.27999 2.66675 16.0267 2.66675C23.6 2.66675 29.3333 8.87606 29.3333 15.9801C29.3333 24.2191 22.6133 29.3334 16 29.3334C13.8133 29.3334 11.3867 28.7459 9.43999 27.5975C8.75999 27.1835 8.18666 26.8764 7.45332 27.1168L4.75999 27.918C4.07999 28.1316 3.46666 27.5975 3.66666 26.8764L4.55999 23.8852C4.70666 23.4713 4.67999 23.0306 4.46666 22.6834C3.31999 20.5736 2.66666 18.2635 2.66666 16.0201ZM14.2667 16.0201C14.2667 16.9682 15.0267 17.7293 15.9733 17.7427C16.92 17.7427 17.68 16.9682 17.68 16.0335C17.68 15.0854 16.92 14.3242 15.9733 14.3242C15.04 14.3109 14.2667 15.0854 14.2667 16.0201ZM20.4133 16.0335C20.4133 16.9682 21.1733 17.7427 22.12 17.7427C23.0667 17.7427 23.8267 16.9682 23.8267 16.0335C23.8267 15.0854 23.0667 14.3242 22.12 14.3242C21.1733 14.3242 20.4133 15.0854 20.4133 16.0335ZM9.82666 17.7427C8.89332 17.7427 8.11999 16.9682 8.11999 16.0335C8.11999 15.0854 8.87999 14.3242 9.82666 14.3242C10.7733 14.3242 11.5333 15.0854 11.5333 16.0335C11.5333 16.9682 10.7733 17.7293 9.82666 17.7427Z" fill="url(#paint0_linear_5_2044)"/>
<defs>
<linearGradient id="paint0_linear_5_2044" x1="29.3333" y1="29.3334" x2="-2.39762" y2="20.1333" gradientUnits="userSpaceOnUse">
<stop stop-color="#6A5AE0"/>
<stop offset="1" stop-color="#A39DD1"/>
</linearGradient>
</defs>
</svg>
