<svg width="24" height="25" viewBox="0 0 24 25" fill="none" xmlns="http://www.w3.org/2000/svg">
<g clip-path="url(#clip0_30_1075)">
<path d="M23.5078 12.5577C23.5078 11.5744 23.4295 10.8569 23.2598 10.1128H12.2295V14.5508H18.7041C18.5736 15.6537 17.8687 17.3146 16.3022 18.4307L16.2802 18.5793L19.7678 21.3295L20.0095 21.354C22.2285 19.2679 23.5078 16.1984 23.5078 12.5577Z" fill="#4285F4"/>
<path d="M12.2295 24.2508C15.4015 24.2508 18.0644 23.1878 20.0095 21.3542L16.3022 18.4308C15.3101 19.1351 13.9786 19.6267 12.2295 19.6267C9.12274 19.6267 6.48592 17.5406 5.54596 14.6572L5.40819 14.6691L1.78174 17.526L1.73431 17.6602C3.66624 21.5667 7.63456 24.2508 12.2295 24.2508Z" fill="#34A853"/>
<path d="M5.54609 14.6573C5.29808 13.9132 5.15454 13.1159 5.15454 12.2921C5.15454 11.4682 5.29808 10.671 5.53304 9.92691L5.52647 9.76844L1.85458 6.86572L1.73444 6.92389C0.938206 8.54499 0.481323 10.3654 0.481323 12.2921C0.481323 14.2188 0.938206 16.0391 1.73444 17.6602L5.54609 14.6573Z" fill="#FBBC05"/>
<path d="M12.2295 4.95728C14.4355 4.95728 15.9236 5.92727 16.7721 6.73786L20.0877 3.44253C18.0514 1.51585 15.4015 0.333252 12.2295 0.333252C7.63455 0.333252 3.66623 3.01731 1.73431 6.92382L5.53291 9.92684C6.48591 7.04345 9.12273 4.95728 12.2295 4.95728Z" fill="#EB4335"/>
</g>
<defs>
<clipPath id="clip0_30_1075">
<rect width="23.04" height="24" fill="white" transform="translate(0.479996 0.333252)"/>
</clipPath>
</defs>
</svg>
