<svg width="20" height="21" viewBox="0 0 20 21" fill="none" xmlns="http://www.w3.org/2000/svg">
<path d="M9.98698 2.3335C12.5443 2.3335 14.6022 4.34622 14.6022 6.83057V8.10791C16.0374 8.55588 17.0835 9.85504 17.0837 11.4067V15.521C17.0837 17.4422 15.4906 19.0004 13.527 19.0005H6.47428C4.50975 19.0005 2.91666 17.4422 2.91666 15.521V11.4067C2.91686 9.85504 3.96379 8.55588 5.39811 8.10791V6.83057C5.40658 4.34632 7.46371 2.33367 9.98698 2.3335ZM9.99577 11.8208C9.58942 11.8208 9.25962 12.1432 9.25944 12.5405V14.3794C9.2595 14.7851 9.58935 15.1079 9.99577 15.1079C10.4106 15.1079 10.7408 14.7851 10.7409 14.3794V12.5405C10.7407 12.1432 10.4106 11.8208 9.99577 11.8208ZM10.0046 3.78271C8.28559 3.78271 6.88802 5.14117 6.87955 6.81396V7.92822H13.1208V6.83057C13.1208 5.1496 11.7234 3.78289 10.0046 3.78271Z" fill="#9E9E9E"/>
</svg>
