<svg width="20" height="21" viewBox="0 0 20 21" fill="none" xmlns="http://www.w3.org/2000/svg">
<path fill-rule="evenodd" clip-rule="evenodd" d="M14.1162 3.16675C15.2337 3.16675 16.3087 3.60841 17.0995 4.40091C17.8912 5.19175 18.3337 6.25841 18.3337 7.37508V13.9584C18.3337 16.2834 16.442 18.1667 14.1162 18.1667H5.88367C3.55783 18.1667 1.667 16.2834 1.667 13.9584V7.37508C1.667 5.05008 3.5495 3.16675 5.88367 3.16675H14.1162ZM15.442 8.61675L15.5087 8.55008C15.7078 8.30841 15.7078 7.95842 15.4995 7.71675C15.3837 7.59258 15.2245 7.51675 15.0587 7.50008C14.8837 7.49091 14.717 7.55008 14.5912 7.66675L10.8337 10.6667C10.3503 11.0676 9.65783 11.0676 9.167 10.6667L5.417 7.66675C5.15783 7.47508 4.7995 7.50008 4.58367 7.72508C4.35867 7.95008 4.33367 8.30841 4.5245 8.55841L4.63367 8.66675L8.42533 11.6251C8.892 11.9917 9.45783 12.1917 10.0503 12.1917C10.6412 12.1917 11.217 11.9917 11.6828 11.6251L15.442 8.61675Z" fill="#9E9E9E"/>
</svg>
